# xmcd CD database file
#
# Track frame offsets:
#	183
#	11245
#	19570
#	29600
#	40193
#	51643
#	64308
#	76898
#	89118
#	103535
#	117585
#	132680
#	147430
#	162368
#	177873
#	191853
#	205675
#	216438
#	229808
#	248083
#	268173
#	280978
#	301503
#
# Disc length: 4221 seconds
#
# Revision: 0
# Processed by: cddbd v1.5.1PL0 Copyright (c) Steve Scherf et al.
# Submitted via: CDex 1.51
#
DISCID=61107b17
DTITLE=I 3 James P. Johnson - The Dean
DYEAR=1991
DGENRE=Jazz
TTITLE0=Steeplechase rag
TTITLE1=Caprice Rag
TTITLE2=Daintiness Rag
TTITLE3=Twilight Rag
TTITLE4=Charleston
TTITLE5=Carolina Shout
TTITLE6=All That I Had Is Gone 
TTITLE7=Snowy Morning Blues
TTITLE8=Riffs
TTITLE9=Hungry Blues
TTITLE10=fascination
TTITLE11=A - Flat Dream
TTITLE12=Lonesome Reverie
TTITLE13=Blueberry Rhyme
TTITLE14=Memories of You
TTITLE15=Old Faschioned Love
TTITLE16=Swinging at the Lido
TTITLE17=Havin' a Ball
TTITLE18=The Mule Walk
TTITLE19=After You've Gone
TTITLE20=If Could Be With You One Hour Tonigth
TTITLE21=Walkin' the Dog
TTITLE22=Baby, Won't you Please Come Home
EXTD=YEAR: 1991
EXTT0=
EXTT1=
EXTT2=
EXTT3=
EXTT4=
EXTT5=
EXTT6=
EXTT7=
EXTT8=
EXTT9=
EXTT10=
EXTT11=
EXTT12=
EXTT13=
EXTT14=
EXTT15=
EXTT16=
EXTT17=
EXTT18=
EXTT19=
EXTT20=
EXTT21=
EXTT22=
PLAYORDER=
